<svg aria-hidden="true" style="position: absolute; width: 0; height: 0; overflow: hidden;" version="1.1" xmlns="http://www.w3.org/2000/svg" xmlns:xlink="http://www.w3.org/1999/xlink">
<defs>
<symbol id="trash" viewBox="0 0 32 32">
<path d="M27 6.25h-5.25v-1.25c0-1.519-1.231-2.75-2.75-2.75v0h-6c-1.519 0-2.75 1.231-2.75 2.75v0 1.25h-5.25c-0.414 0-0.75 0.336-0.75 0.75s0.336 0.75 0.75 0.75v0h1.25v18.25c0 0.966 0.784 1.75 1.75 1.75v0h16c0.966 0 1.75-0.784 1.75-1.75v0-18.25h1.25c0.414 0 0.75-0.336 0.75-0.75s-0.336-0.75-0.75-0.75v0zM11.75 5c0-0.69 0.56-1.25 1.25-1.25v0h6c0.69 0 1.25 0.56 1.25 1.25v0 1.25h-8.5zM24.25 26c0 0.138-0.112 0.25-0.25 0.25v0h-16c-0.138 0-0.25-0.112-0.25-0.25v0-18.25h16.5zM13.75 13v8c0 0.414-0.336 0.75-0.75 0.75s-0.75-0.336-0.75-0.75v0-8c0-0.414 0.336-0.75 0.75-0.75s0.75 0.336 0.75 0.75v0zM19.75 13v8c0 0.414-0.336 0.75-0.75 0.75s-0.75-0.336-0.75-0.75v0-8c0-0.414 0.336-0.75 0.75-0.75s0.75 0.336 0.75 0.75v0z"></path>
</symbol>
<symbol id="plus" viewBox="0 0 32 32">
<path d="M27.75 16c0 0.414-0.336 0.75-0.75 0.75v0h-10.25v10.25c0 0.414-0.336 0.75-0.75 0.75s-0.75-0.336-0.75-0.75v0-10.25h-10.25c-0.414 0-0.75-0.336-0.75-0.75s0.336-0.75 0.75-0.75v0h10.25v-10.25c0-0.414 0.336-0.75 0.75-0.75s0.75 0.336 0.75 0.75v0 10.25h10.25c0.414 0 0.75 0.336 0.75 0.75v0z"></path>
</symbol>
<symbol id="pencil" viewBox="0 0 32 32">
<path d="M30.107 7.396l-5.218-5.244c-0.333-0.331-0.791-0.536-1.298-0.536s-0.965 0.205-1.298 0.536l0-0-18.498 18.471-1.689 7.289c-0.027 0.118-0.042 0.253-0.042 0.391 0 1.007 0.814 1.825 1.819 1.831h0.001c0.057 0.006 0.124 0.010 0.191 0.010s0.134-0.003 0.199-0.010l-0.008 0.001 7.369-1.689 18.471-18.453c0.331-0.333 0.536-0.791 0.536-1.298s-0.205-0.965-0.536-1.298l0 0zM10.747 26.844l-6.907 1.449 1.573-6.773 13.84-13.787 5.333 5.333zM25.778 11.778l-5.333-5.333 3.093-3.076 5.244 5.333z"></path>
</symbol>
<symbol id="close" viewBox="0 0 32 32">
<path d="M17.253 16l7.369-7.369c0.146-0.17 0.222-0.389 0.213-0.613s-0.101-0.436-0.26-0.594c-0.158-0.158-0.371-0.251-0.594-0.26s-0.442 0.067-0.613 0.213l-7.369 7.369-7.369-7.378c-0.167-0.167-0.394-0.261-0.631-0.261s-0.464 0.094-0.631 0.261c-0.167 0.167-0.261 0.394-0.261 0.631s0.094 0.464 0.261 0.631l7.378 7.369-7.378 7.369c-0.093 0.080-0.169 0.178-0.222 0.288s-0.083 0.23-0.088 0.353 0.016 0.244 0.061 0.359c0.045 0.114 0.112 0.218 0.199 0.304s0.19 0.154 0.304 0.199 0.236 0.065 0.359 0.061c0.122-0.005 0.243-0.035 0.353-0.088s0.208-0.129 0.288-0.222l7.378-7.369 7.369 7.369c0.17 0.146 0.389 0.222 0.613 0.213s0.436-0.101 0.594-0.26 0.251-0.37 0.26-0.594c0.009-0.224-0.067-0.442-0.213-0.613l-7.369-7.369z"></path>
</symbol>
</defs>
</svg>
